<?xml version="1.0" encoding="UTF-8" standalone="no"?>
<svg width="160px" height="26px" viewBox="0 0 160 26" version="1.1" xmlns="http://www.w3.org/2000/svg" xmlns:xlink="http://www.w3.org/1999/xlink" xmlns:sketch="http://www.bohemiancoding.com/sketch/ns">
    <!-- Generator: Sketch 3.3 (11970) - http://www.bohemiancoding.com/sketch -->
    <title>INFEEDL</title>
    <desc>Created with Sketch.</desc>
    <defs></defs>
    <g id="Page-1" stroke="none" stroke-width="1" fill="none" fill-rule="evenodd" sketch:type="MSPage">
        <g id="INFEEDL" sketch:type="MSLayerGroup" fill="#F5A623">
            <path d="M0,26 L4.35038027,26 L4.35038027,0 L0,0 L0,26 Z M11.8485967,26 L16.128239,26 L16.128239,7.50285714 L29.7806519,26 L33.4236533,26 L33.4236533,0 L29.1440109,0 L29.1440109,17.9771429 L15.8806564,0 L11.8485967,0 L11.8485967,26 Z M40.6742871,26 L45.0246673,26 L45.0246673,15.4142857 L57.509905,15.4142857 L57.509905,11.2542857 L45.0246673,11.2542857 L45.0246673,4.16 L59.1015076,4.16 L59.1015076,0 L40.6742871,0 L40.6742871,26 Z M106.106836,11.2489795 L106.106836,14.9314286 L93.692336,14.9314286 L93.692336,21.9142857 L107.875283,21.9142857 L107.875283,26 L89.3419558,26 L89.3419558,11.2489795 L106.106836,11.2489795 Z M93.692336,4.1122449 L93.692336,4.08571429 L107.698438,4.08571429 L107.698438,0 L89.3419558,0 L89.3419558,4.1122449 L93.692336,4.1122449 Z M81.5456297,11.2489795 L81.5456297,14.9314286 L69.1311299,14.9314286 L69.1311299,21.9142857 L83.3140769,21.9142857 L83.3140769,26 L64.7807496,26 L64.7807496,11.2489795 L81.5456297,11.2489795 L81.5456297,11.2489795 Z M69.1311299,4.1122449 L69.1311299,4.08571429 L83.1372322,4.08571429 L83.1372322,0 L64.7807496,0 L64.7807496,4.1122449 L69.1311299,4.1122449 Z M113.923373,4.13876903 L113.923373,0 L123.154667,0 C130.935835,0 136.311915,5.60857143 136.311915,13 C136.311915,20.3171429 130.935835,26 123.154667,26 L113.923373,26 L113.923373,11.2755036 L118.273753,11.2755036 L118.273753,21.84 L123.154667,21.84 C128.353902,21.84 131.749321,18.1628571 131.749321,13 C131.749321,7.91142857 128.353902,4.16 123.154667,4.16 L118.506177,4.16 L118.506177,4.13876903 L113.923373,4.13876903 L113.923373,4.13876903 Z M142.466112,26 L159.832264,26 L159.832264,21.84 L146.816492,21.84 L146.816492,0 L142.466112,0 L142.466112,26 Z" sketch:type="MSShapeGroup"></path>
        </g>
    </g>
</svg>